.
 
http://www.scenetime.com    -  Hottest private tracker on the net. !!!

New release on http://www.scenetime.com

        Seed back for speed


...................................NFO:.................................................
                                                                             
 :::  :::  :::::  :::   :::   :::::    ::: :::     :::    :::::    
 :::  :::  ::::::::::  :::   :::::::    ::::: :::     :::   :::::::   
 :::  ::::::::::::::::::::::::::: ::: ::: :::     :::  :::::::::  
 :::  ::: :::::::::::: :::::: ::: ::: :::     :::  ::::::  
 :::  ::: ::: :::::::::: :::  ::: ::: :::  :::     :::  ::: :::  
 :::  ::: ::: :::::::::  :::  ::: ::: :::  :::  :  :::  ::: :::  
 :::  ::: ::: :::::::::: :::  ::: ::: :::  ::: ::: :::  ::: :::  
 :::  ::: ::: ::::::::::::  ::: ::: :::  ::: : : :::  ::: :::  
 :::..::: ::: :::::: ::::::  ::: ::: :::  ::::: :::::  ::: :::  
 ::::::::: :::::: ::::::  ::: ::::: ::::: :::::  ::: :::  
  ::::  ::: ::::::  ::::::  ::: :::  ::::   ::::  ::: :::  

                                                                              
                  NOTES                    
                                                                              
                  NOTES                    
                                                                              
                                                                              
                                                                              
 Encoded By .......:UnKnOwN                                                   
 Runtime ..........:1:25                                                      
 IMDb URL .........:http://www.imdb.com/title/tt1748197/                      
 Language .........:English                                                   
 File Size ........:1.10gb                                                    
 Release Date ......... 2011                                                  
 Source       ......... Thanks Bud                                            
 File Type    ......... Single AVI                                            
 PS3 Compatible ....... Sure why not                                          
 Genre        ......... Action/Thriller                                       
                                                                              
                                                                              
 Video                                                                        
  ID                               : 0                                        
  Format                           : MPEG-4 Visual                            
  Format profile                   : Advanced Simple@L5                        
  Format settings, BVOP            : Yes                                       
  Format settings, QPel            : No                                        
  Format settings, GMC             : No warppoints                             
  Format settings, Matrix          : Custom                                    
  Codec ID                         : XVID                                      
  Codec ID/Hint                    : XviD                                      
  Duration                         : 1h 25mn                                   
  Bit rate                         : 1380Kbps                                  
  Width                            : 720pixels                                 
  Height                           : 304pixels                                 
  Display aspect ratio             : 2.35                                      
  Frame rate                       : 23.997fps                                 
  Color space                      : YUV                                       
  Chroma subsampling               : 4:2:0                                     
  Bit depth                        : 8 bits                                    
  Scan type                        : Progressive                               
  Bits/(Pixel*Frame)               : 0.234                                     
  Stream size                      : 892 MiB (86%)                             
  Writing library                  : XviD 1.2.1 (UTC 2008-12-04)              
                                                                              
                                                                              
 Audio                                                                         
 ID                               : 1                                          
 Format                           : AC3                                        
 Format/Info                      : Version 1                                  
 Mode extension                   : AC3                                        
 Codec ID                         : 2000                                       
 Duration                         : 1h 25mn                                    
 Bit rate mode                    : Constant                                   
 Bit rate                         : 448Kbps                                    
 Channel(s)                       : 6channels                                  
 Channel positions                : Front: L  R                                
 Sampling rate                    : 48.0 KHz                                   
 Bit depth                        : 16 bits                                    
 Stream size                      : 302 MiB                                    
 Alignment                        : Aligned on interleaves                     
 Interleave, duration             : 42 ms (1.00 video frame)                   
 Interleave, preload duration     : 512 ms                                    
                                                                              
                                                                              
                                                                              
                                                                               
                                                                              
                                                                              
                                                                              
                                 SYSPNOSIS                                    
   A group of friends plan out a detailed heist that turns deadly when one    
 betrays the other by taking off with the goods. Taking matters into his own  
     hands, Sonny seeks out his revenge teaming up with the most dangerous      
            mob boss in town to get back what is rightfully his.              
                                                                              
                                                                              
                              RELEASE INFO                                    
                                                                              
                  Many thx for the source homie(:                             
  On a side note would like to say to the reencoders of xvid rips that do not 
     mention source,it's w/m so next time you use any rg's source don't care  
    if you say thanks just mention source.Since you don't want to enjoy the   
      w/m ,Like you did with our river murders you know who you are you noob  
 to the downloaders it's not watermarked through out just few 1 second spots  
              nothing distracting.Burce willis flick stv wtf?                 
                                                                              
                                                                              

                 
              
                                                                              
                              LOOKING FOR                                     
                                                                              
            Daisies,Meadows,Leprechauns,Ice Cream,Cotton Candy                
                      and everything sweet and nice                           
              Is this NFO clean enough for your standards?                    
                Oh baby jesus what has p2p come too ftw.                      
                                                                              

               GREETZ & RESPECT               
  
                          NOBODY YET WILL LET YOU KNOW                        
                                                                              
                          MORE GOODIES COMING REAL SOON